<?xml version="1.0" standalone="no"?>
<!DOCTYPE svg PUBLIC "-//W3C//DTD SVG 20010904//EN"
 "http://www.w3.org/TR/2001/REC-SVG-20010904/DTD/svg10.dtd">
<svg version="1.0" xmlns="http://www.w3.org/2000/svg"
 width="512.000000pt" height="512.000000pt" viewBox="0 0 512.000000 512.000000"
 preserveAspectRatio="xMidYMid meet">

<g transform="translate(0.000000,512.000000) scale(0.100000,-0.100000)"
fill="#000000" stroke="none">
<path d="M1182 5010 c-156 -63 -311 -427 -406 -955 -22 -119 -381 -2735 -388
-2821 -4 -55 184 -305 370 -490 385 -384 879 -630 1434 -715 204 -31 532 -31
737 0 282 43 498 110 757 236 395 192 760 510 999 873 l48 73 -182 1347 c-186
1370 -208 1521 -261 1742 -98 407 -235 674 -364 709 -36 10 -46 7 -112 -24
-186 -90 -354 -258 -434 -435 -13 -30 -25 -57 -27 -59 -1 -2 -44 17 -95 43
-426 210 -986 208 -1408 -4 l-79 -40 -24 54 c-84 182 -247 346 -444 445 -66
33 -83 36 -121 21z m506 -930 c160 -37 284 -171 313 -338 46 -261 -201 -509
-462 -463 -252 44 -403 284 -329 523 62 201 274 325 478 278z m2006 -28 c261
-122 317 -469 107 -665 -242 -227 -628 -93 -683 236 -25 151 54 321 187 405
112 71 268 81 389 24z"/>
<path d="M1495 3911 c-50 -23 -109 -84 -130 -133 -47 -114 8 -262 120 -321 54
-29 164 -30 219 -3 189 94 192 354 7 449 -67 33 -154 37 -216 8z"/>
<path d="M3415 3906 c-143 -66 -186 -238 -94 -372 21 -31 47 -52 94 -75 57
-28 72 -31 123 -26 100 9 171 58 211 147 27 58 27 150 2 205 -23 50 -84 109
-133 130 -56 23 -143 19 -203 -9z"/>
</g>
</svg>
